/* XPM */
static char *d6ebab7e43514193f6bb98f93068bd9bTNFOGrB4LbHl6KD0[] = {
/* columns rows colors chars-per-pixel */
"32 32 6 1 ",
"  c #753500",
". c #006A00",
"X c #009600",
"o c #4EAE00",
"O c #CA881C",
"+ c #E9B500",
/* pixels */
"ooXXooXXoo..XXooooXXXX..ooXXXXXX",
"ooXXooXXoo..XXooooXXXX..ooXXXXXX",
"oo....oo..oo++++++++..XX..oo..oo",
"oo....oo..++OOOOOOOO++XX..oo..oo",
"ooXXoo...+OOOOOOOOOOOO+Xoo....XX",
"ooXXoo.++OOOO++++++OOOO++o....XX",
"XXoooo+OOOO++OOOOOO++OOOO+ooXXXX",
"XXooo+OOO+++OOOOOOOO+O OOO+oXXXX",
"XXXXo+OO++OOOO++++OOOO  OO+Xoooo",
"XXXX+OO++OOOO+OOOO OOOO OOO+oooo",
"..o+OO++OOOOO+OOOO OOOOO OOO+.oo",
"..o+OO+OOOOOO+OOOO OOOOO  OO+.oo",
"oo+OO+OOOOOOO+OOOO OOOOOOO OO+XX",
"oo+OO+OOOOOOO+OOOO OOOOOOO OO+XX",
"oo+OO+OOOOOOO+OOOO OOOOOOO OO+oo",
"oo+OO+OOOOOOO+OOOO OOOOOOO OO+oo",
"XX+OO+OOOOOOO+OOOO OOOOOOO OO+XX",
"XX+OO+OOOOOOO+OOOO OOOOOOO OO+XX",
"oo+OO+OOOOOOO+OOOO OOOOOOO OO+oo",
"oo+OO+OOOOOOO+OOOO OOOOOOO OO+oo",
"ooX+OO+OOOOOO+OOOO OOOOOO OO+X..",
"ooX+OO++OOOOO+OOOO OOOOOO OO+X..",
"XXoo+OO+OOOOO+OOOO OOOOO  O+..oo",
"XXooX+O++OOOOO    OOOOO  O+o..oo",
"ooXXo+OO++OOOOOOOOOOOO  OO+oooXX",
"ooXXoo+OOO  OOOOOOOO   OO+ooooXX",
"XXoo...++OOO         OO++.XXoooo",
"XXoo.....+OOOOOOOOOOOO+o..XXoooo",
"ooXXXX..oo++OOOOOOOO++XXXXXX..XX",
"ooXXXX..ooXX++++++++ooXXXXXX..XX",
"XXXXooXXXX....ooXXooXXXXooXXXXoo",
"XXXXooXXXX....ooXXooXXXXooXXXXoo"
};