/* XPM */
static char *af945f77ba4d4a0ce3483bf248615981187vgAguw9bGwSIP[] = {
/* columns rows colors chars-per-pixel */
"32 32 7 1 ",
"  c #006A00",
". c #009600",
"X c #4EAE00",
"o c #CA881C",
"O c #E9B500",
"+ c #FFFF30",
"@ c white",
/* pixels */
"XX..XX..XX  ..XXXX....  XX......",
"XX..XX..XX  ..XXXX....  XX......",
"XX    XX  XXOOOOOOOO  ..  XX  XX",
"XX    XX  OO++++++++OO..  XX  XX",
"XX..XX   O++++++++++++O.XX    ..",
"XX..XX OO++++@@@@@@++++OOX    ..",
"..XXXXO++++@@++++++@@++++OXX....",
"..XXXO+++@@@++++++++@+o+++OX....",
"....XO++@@++++@@@@++++oo++O.XXXX",
"....O++@@++++@++++o++++o+++OXXXX",
"  XO++@@+++++@++++o+++++o+++O XX",
"  XO++@++++++@++++o+++++oo++O XX",
"XXO++@+++++++@++++o+++++++o++O..",
"XXO++@+++++++@++++o+++++++o++O..",
"XXO++@+++++++@++++o+++++++o++OXX",
"XXO++@+++++++@++++o+++++++o++OXX",
"..O++@+++++++@++++o+++++++o++O..",
"..O++@+++++++@++++o+++++++o++O..",
"XXO++@+++++++@++++o+++++++o++OXX",
"XXO++@+++++++@++++o+++++++o++OXX",
"XX.O++@++++++@++++o++++++o++O.  ",
"XX.O++@@+++++@++++o++++++o++O.  ",
"..XXO++@+++++@++++o+++++oo+O  XX",
"..XX.O+@@+++++oooo+++++oo+OX  XX",
"XX..XO++@@++++++++++++oo++OXXX..",
"XX..XXO+++oo++++++++ooo++OXXXX..",
"..XX   OO+++ooooooooo++OO ..XXXX",
"..XX     O++++++++++++OX  ..XXXX",
"XX....  XXOO++++++++OO......  ..",
"XX....  XX..OOOOOOOOXX......  ..",
"....XX....    XX..XX....XX....XX",
"....XX....    XX..XX....XX....XX"
};