/* XPM */
static char *c3c8ebe048ea4879bb3488649631fb44ndLXJAJYevaMVRSf[] = {
/* columns rows colors chars-per-pixel */
"32 32 5 1 ",
"  c #006A00",
". c #009600",
"X c #4EAE00",
"o c #CA881C",
"O c #E9B500",
/* pixels */
"XX..XX..XX  ..XXXX....  XX......",
"XX..XX..XX  ..XXXX....  XX......",
"XX    XX  XXOOOOOOOO  ..  XX  XX",
"XX    XX  OOOOOOOOOOOO..  XX  XX",
"XX..XX   OOOOOOOOOOOOOO.XX    ..",
"XX..XX OOOOOOOOOOOOOOOOOOX    ..",
"..XXXXOOOOOOOOOOOOOOOOOOOOXX....",
"..XXXOOOOOOOOOOOOOOOOOoOOOOX....",
"....XOOOOOOOOOOOOOOOOOooOOO.XXXX",
"....OOOOOOOOOOOOOOoOOOOoOOOOXXXX",
"  XOOOOOOOOOOOOOOOoOOOOOoOOOO XX",
"  XOOOOOOOOOOOOOOOoOOOOOooOOO XX",
"XXOOOOOOOOOOOOOOOOoOOOOOOOoOOO..",
"XXOOOOOOOOOOOOOOOOoOOOOOOOoOOO..",
"XXOOOOOOOOOOOOOOOOoOOOOOOOoOOOXX",
"XXOOOOOOOOOOOOOOOOoOOOOOOOoOOOXX",
"..OOOOOOOOOOOOOOOOoOOOOOOOoOOO..",
"..OOOOOOOOOOOOOOOOoOOOOOOOoOOO..",
"XXOOOOOOOOOOOOOOOOoOOOOOOOoOOOXX",
"XXOOOOOOOOOOOOOOOOoOOOOOOOoOOOXX",
"XX.OOOOOOOOOOOOOOOoOOOOOOoOOO.  ",
"XX.OOOOOOOOOOOOOOOoOOOOOOoOOO.  ",
"..XXOOOOOOOOOOOOOOoOOOOOooOO  XX",
"..XX.OOOOOOOOOooooOOOOOooOOX  XX",
"XX..XOOOOOOOOOOOOOOOOOooOOOXXX..",
"XX..XXOOOOooOOOOOOOOoooOOOXXXX..",
"..XX   OOOOOoooooooooOOOO ..XXXX",
"..XX     OOOOOOOOOOOOOOX  ..XXXX",
"XX....  XXOOOOOOOOOOOO......  ..",
"XX....  XX..OOOOOOOOXX......  ..",
"....XX....    XX..XX....XX....XX",
"....XX....    XX..XX....XX....XX"
};