/* XPM */
static char *_4550e8b9dd9454e9095de93859bca35jgJwCEWzSPEeUR1P[] = {
/* columns rows colors chars-per-pixel */
"32 32 13 1 ",
"  c #010101",
". c #3C3C3C",
"X c #006A00",
"o c #A11F00",
"O c #F80200",
"+ c #CD3B25",
"@ c #009600",
"# c #4EAE00",
"$ c #E9B500",
"% c #FFFF30",
"& c #FF74B0",
"* c #AAAAA9",
"= c white",
/* pixels */
"##@@##@@##XX@@####@@@@XX##@@@@@@",
"##@@##@@##XX  #  #  @@XX##@@@@@@",
"##XXXX##XX## %  = % XX@@XX##XX##",
"##XXXX##XX## %$%==% XX@@XX##XX##",
"##@@##XXXX@@ $ $%O$ ##@@##XXXX@@",
"##@@##XXXX   ======   @@##XXXX@@",
"@@####@@  ============  @@##@@@@",
"@@####@ ================ @##@@@@",
"@@@@## ================== @@####",
"@@@@# *=================== @####",
"XX##X *=================== @XX##",
"XX## **======== =*==  *== = XX##",
"##XX **========*    **   == ##@@",
"##XX **=========**..==..=== ##@@",
"##@ =**===========.====.==== @##",
"##@ =***==========..==..==== @##",
"@@# =***==========  ==  ==== #@@",
"@@# =****====== ============ #@@",
"##X =* =**=====o  ====== o=* ###",
"##X   ====**===o**      *o* = ##",
"   = =====****=o*=o*o*o*=** *= X",
" == ======******o=oooooo=** **= ",
" ** ====  ******+&&&+ooo** ***= ",
"@ =*    *********&&&&+o***     #",
"##  ** ===********&&&**** ####@@",
"##@@    ====************ #####@@",
"@@##XXXX  =====*******  XX@@####",
"@@##XXXXXX   ======   ##XX@@####",
"##@@@@XX##@@@      @##@@@@@@XX@@",
"##@@@@XX##@@@@XX@@@@##@@@@@@XX@@",
"@@@@##@@@@XXXX##@@##@@@@##@@@@##",
"@@@@##@@@@XXXX##@@##@@@@##@@@@##"
};