/* XPM */
static char *ce7e287cb51b4915fbfb1c54538c31fcD6YbeO5NVTb679si[] = {
/* columns rows colors chars-per-pixel */
"32 32 9 1 ",
"  c #010101",
". c #006A00",
"X c #464669",
"o c #009600",
"O c #4EAE00",
"+ c #CA881C",
"@ c #E9B500",
"# c #FFFF30",
"$ c white",
/* pixels */
"OOooOOooOO..ooOOOOoooo..OOoooooo",
"OOooO   OO..ooOOOOooo#..OOoooooo",
"OO.. ##@ .OOOO....OO#$#o..OO..OO",
"OO.. #@+ .OOOO....OO.#oo..OO..OO",
"OOoo @++ .o     ooooOOooOO. ..oo",
"OOooO              oOOooO   ..oo",
"ooOOO $ $   $$$   $      $  oooo",
"ooOOO $ $   $$$   $$$   $$$ oooo",
"ooooO X $   $$$   $$$   $$$ OOOO",
"ooooO X $  $   $$$ $$   $   OOOO",
"..OO. $  $$$   $$$   $$$    ..OO",
".#OO. $  $$$   $$$   $$$    ..OO",
"#$#.. X  $  $$$   $  $$$ $$ OOoo",
"O#... X $   $$$   $$$   $$$ OOoo",
"OOooO $ $   $$$   $$$   $$$ ooOO",
"OOooO $ $ $$   $$$ $$   $   ooOO",
"ooOOO X  $$$   $$$   $$$    OOoo",
"ooOOO X  $$$   $$$   $$$    OOoo",
"OO... $  $$       $  $$$ $$ OOOO",
"OO... $      OO     $   $   OOOO",
"OOooo X ..ooOOooOOo      O..oo..",
"OOooo X ..ooOOooOOooOOooOO..oo..",
"ooOOo $ ooO#ooooooOO..ooooOO..OO",
"ooOOo $ oo#$#oooooOO..ooooOO#.OO",
"OOooO X OO.#OOooOO..oo..OOO#$#oo",
"OOooO X OO..OOooOO..oo..OOOO#Ooo",
"ooOO. $ ..OOOOOOoo....OO..ooOOOO",
"ooOO. $ ..OOOOOOoo....OO..ooOOOO",
"OOoo  X  Ooooo..ooooOOoooooo..oo",
"OOo                          .oo",
"ooooOOoooo....OOooOOooooOOooooOO",
"ooooOOoooo....OOooOOooooOOooooOO"
};