/* XPM */
static char *e355aa5f516d4ed994641a8d851ccb25Zod83cODP1OslG8e[] = {
/* columns rows colors chars-per-pixel */
"32 32 3 1 ",
"  c #006A00",
". c #009600",
"X c #00AA00",
/* pixels */
"XX..XX..XX  ..XXXX....  XX......",
"XX..XX..XX  ..XXXX....  XX......",
"XX    XX  XXXX    XX  ..  XX  XX",
"XX    XX  XXXX    XX  ..  XX  XX",
"XX..XX    ..  ......XX..XX    ..",
"XX..XX    ..  ......XX..XX    ..",
"..XXXX....XX..XX..  ..  ..XX....",
"..XXXX....XX..XX..  ..  ..XX....",
"....XXXXXX......XX..      ..XXXX",
"....XXXXXX......XX..      ..XXXX",
"  XX  ..    ..XX    XXXXXX..  XX",
"  XX  ..    ..XX    XXXXXX..  XX",
"XX    ..XX..XX......XX..  ..XX..",
"XX    ..XX..XX......XX..  ..XX..",
"XX..XXXX....  XX..XX....XXXX..XX",
"XX..XXXX....  XX..XX....XXXX..XX",
"..XXXX..XX      XX..  ..    XX..",
"..XXXX..XX      XX..  ..    XX..",
"XX    ....XXXXXX  XX..XX..XXXXXX",
"XX    ....XXXXXX  XX..XX..XXXXXX",
"XX....XX  ..XX..XX..XX..XX  ..  ",
"XX....XX  ..XX..XX..XX..XX  ..  ",
"..XX..XX..XX......XX  ....XX  XX",
"..XX..XX..XX......XX  ....XX  XX",
"XX..XX..XX  XX..XX  ..  XXXXXX..",
"XX..XX..XX  XX..XX  ..  XXXXXX..",
"..XX      XXXXXX..    XX  ..XXXX",
"..XX      XXXXXX..    XX  ..XXXX",
"XX....  XX....  ....XX......  ..",
"XX....  XX....  ....XX......  ..",
"....XX....    XX..XX....XX....XX",
"....XX....    XX..XX....XX....XX"
};