/* XPM */
static char *_c0150e1195b4f9a9fcd8ec1809e8d98tZWPjC2veA2c45TL[] = {
/* columns rows colors chars-per-pixel */
"32 32 12 1 ",
"  c #010101",
". c #1E1E1E",
"X c #243F0A",
"o c #3C3C3C",
"O c #006A00",
"+ c #357900",
"@ c #324632",
"# c #56651B",
"$ c #464646",
"% c gray47",
"& c #009600",
"* c gray59",
/* pixels */
"++&&++&&++OO&***** **&OO++&&&&&&",
"++&&++&&++O***$$$ $$$$OO++&&&&&&",
"++OOOO++OO**%$$$ $$$$$$&OO++OO++",
"++OOOO++OO*%$$$$$$$$$$$&OO++OO++",
"++&&++OOO  %$$$$$$$$$$$$++OOOO&&",
"++&&++OO* %$$$$$$$$$$$$$$+OOOO&&",
"&&++++&& %$   $$ $$   $$o&++&&&&",
"&&++++&&% $ $ $$ $$ $ $$o@++&&&&",
"&&&&++++%$$ $ $$ $$ $ $$o@&&++++",
"&&&&++++%$$   $$ $$   $oo@&&++++",
"OO++OO&%%$$  $$$ $$ $$oo@@ &XO++",
"OO++OO&%$$$ $ $$ $$ $$oo@  &XX++",
"++OOOO&%$$$ $$ $ $$ $oo@@  &+X&&",
"++OXXO&o$$$$$$$$$$$$oo@@@  &+X&X",
"++&&XX+o$$$$$$$$$$$ooo@@@  +&XX+",
"++&&+X+oo$$$$$$$$$oo@@@@@  +&XX+",
"&&++XX&ooo$$$$$$$oo@@ @@   O+XX&",
"&&++XX&oo $$o$o$ooo@@      O+XX&",
"++OOOXXo ooooooooo@X@@.    ++XX+",
"++OOOXX o o@ooooo@@X@..    ++X.+",
"++&XXX. ooX@ooo@@@XX .. #  O&..O",
"++&&XX@oooX@@@@@  XX    #XX...@O",
"&&XX.@X X X@@XXX X@X o @@@....@+",
"&&++.@X @@XX@@@##XXXoo@@XX##..@+",
"++&...##XXXX ##XXXXXXX###X#XX.@&",
"++&.$$$#X##X#X#XX#O###OO#XXXXX@&",
"&&+.....$$$$$$oooooooooo......@+",
"&&++OOOOOO++++++&&OOOO++OO&&++++",
"++&&&&OO++&&&&OO&&&&++&&&&&&OO&&",
"++&&&&OO++&&&&OO&&&&++&&&&&&OO&&",
"&&&&++&&&&OOOO++&&++&&&&++&&&&++",
"&&&&++&&&&OOOO++&&++&&&&++&&&&++"
};