/* XPM */
static char *_c829b8bb7474a58d3122adc536e704aBTcK5KLcpUVq2s53[] = {
/* columns rows colors chars-per-pixel */
"32 32 18 1 ",
"  c #010101",
". c #751F00",
"X c #763438",
"o c #006A00",
"O c #725600",
"+ c #44394A",
"@ c #BA0200",
"# c red",
"$ c #009600",
"% c #00AA00",
"& c #C9AB0A",
"* c #FFFF30",
"= c #BE8A77",
"- c #F1D86C",
"; c #2B5786",
": c #6DB5FE",
"> c #B3ACA7",
", c white",
/* pixels */
"%%$$%%$$%%oo$$OOO&&**&oo%%$$$$$$",
"%%$$%%$$%%oOOO&&****&$oo%%$$$$$$",
"%%oooo%%ooO&&&*****&&o$$oo%%oo%%",
"%%oooo%%oO&***&&*****&$$oo%%oo%%",
"%%$$%%ooO&&*&*********&$%%oooo$$",
"%%$$%%ooO&&O******&****&%%oooo$$",
"$$%%%%$O&&O****O***&****&$%%$$$$",
"$$%%%%$O&&O&**OO***&O**&$$%%$$$$",
"$$$$%%%O&O&&*O=O&**&O&**&o$$%%%%",
"$$$$%%%O&O&&O   O**  O&&Oo$$%%%%",
"oo%%oo$O&O&O >;;=O* > &O%O$$oo%%",
"oo%%oo$O&O&O ,,;--O;, &O%%$$oo%%",
"%%oooo$O&O&O-,;:---:,X&Ooo$$%%$$",
"%%oooo$$OO&O---------X&Ooo$$%%$$",
"%%$$%%%%$O&O=---==--X$O$%%%%$$%%",
"%%$$%%%%$$OOX=-----X$$$$%%%%$$%%",
"$$%%%%$$%%o;;,>==>X:;o$$oooo%%$$",
"$$%%%%$$%%;;:;,>@,>:;o$$oooo%%$$",
"%%oooo$$$$;:::;@#@;;:;%%$$%%%%%%",
"%%oooo$$$;::;::;@;:;:;%%$$%%%%%%",
"%%$$$$%%o;::;:::;::;:;$$%%oo$$oo",
"%%$$$$%%o;::;:::;:::;:;$%%oo$$oo",
"$$%%$$%%$;::;:::;:::;:;$$$%%oo%%",
"$$%%$$%%.===.:::;:::;==.$$%%oo%%",
"%%$$%%$$.--..:::+::: =-.%%%%%%$$",
"%%$$%%$$..-=.+++  ++ -.o%%%%%%$$",
"$$%%ooooo... ++ $ ++ .%%oo$$%%%%",
"$$%%oooooo% +++ $ ++ o%%oo$$%%%%",
"%%$$$$oo%%$ ++ o$ ++ %$$$$$$oo$$",
"%%$$$$oo%% OO  o$ ++O $$$$$$oo$$",
"$$$$%%$$$ XXOO %$ OOXX $%%$$$$%%",
"$$$$%%$$$      %$      $%%$$$$%%"
};